<?xml version="1.0" standalone="no"?>
<!DOCTYPE svg PUBLIC "-//W3C//DTD SVG 20010904//EN"
 "http://www.w3.org/TR/2001/REC-SVG-20010904/DTD/svg10.dtd">
<svg version="1.0" xmlns="http://www.w3.org/2000/svg"
 width="600.000000pt" height="600.000000pt" viewBox="0 0 600.000000 600.000000"
 preserveAspectRatio="xMidYMid meet">

<g transform="translate(0.000000,600.000000) scale(0.100000,-0.100000)"
fill="#000000" stroke="none">
<path d="M2977 4532 c-15 -16 -17 -47 -17 -223 0 -146 3 -208 12 -217 19 -19
66 -15 78 7 6 12 10 99 10 213 0 159 -3 198 -16 216 -18 27 -45 28 -67 4z"/>
<path d="M2267 4299 c-9 -12 -13 -29 -9 -38 14 -38 201 -346 215 -355 24 -15
67 8 67 36 0 13 -46 102 -103 198 -88 151 -106 175 -129 178 -18 2 -31 -4 -41
-19z"/>
<path d="M3674 4312 c-16 -10 -214 -350 -214 -366 0 -17 32 -46 52 -46 8 0 22
8 31 18 22 25 207 345 207 359 0 30 -49 53 -76 35z"/>
<path d="M2914 3865 c-29 -20 -61 -99 -74 -181 -20 -132 -60 -450 -75 -595
-12 -120 -19 -154 -40 -191 -14 -25 -34 -72 -45 -104 -26 -74 -100 -361 -100
-385 0 -10 -15 -35 -32 -55 -39 -44 -208 -158 -218 -147 -3 4 -15 28 -25 53
-10 25 -22 49 -26 53 -7 9 -727 -247 -755 -268 -20 -14 -8 -45 18 -45 15 0
573 190 692 236 9 3 26 -28 50 -93 240 -627 294 -748 325 -729 16 10 14 34 -8
92 l-20 51 114 107 c70 65 121 106 135 106 62 0 144 73 170 150 15 44 25 44
35 0 15 -68 108 -150 171 -150 18 0 57 -33 172 -143 l73 -70 -22 -65 c-18 -53
-19 -66 -8 -73 34 -21 55 20 210 417 125 318 160 398 173 396 9 -2 163 -55
342 -118 179 -62 335 -114 345 -114 25 0 36 28 18 44 -25 23 -741 277 -753
267 -6 -5 -20 -32 -31 -60 -11 -28 -22 -51 -26 -51 -3 0 -50 31 -105 68 -100
69 -144 117 -144 157 0 52 -93 374 -130 450 -30 64 -40 96 -45 160 -11 127
-83 680 -94 723 -12 44 -47 100 -73 115 -11 8 -28 7 -56 -2 -29 -10 -44 -10
-60 -2 -28 15 -53 14 -78 -4z m69 -127 l5 -56 -37 5 c-20 3 -37 7 -38 7 -2 2
22 86 32 115 11 29 33 -12 38 -71z m121 28 c20 -69 20 -76 -3 -76 -11 0 -26
-3 -35 -6 -13 -5 -16 2 -16 39 0 50 14 97 29 97 5 0 17 -24 25 -54z m-139
-146 c16 -18 17 -68 19 -777 1 -698 0 -764 -17 -828 -32 -124 -84 -185 -158
-185 -14 0 -62 -37 -131 -101 -65 -61 -113 -98 -118 -93 -11 11 -200 484 -200
499 0 6 19 21 43 34 131 74 237 176 237 230 0 14 20 103 44 198 41 160 56 199
130 339 24 45 29 72 41 220 26 306 56 484 84 484 4 0 16 -9 26 -20z m154 -11
c6 -17 15 -69 21 -117 6 -48 17 -123 25 -167 8 -44 16 -132 18 -195 5 -123 21
-182 70 -253 38 -56 117 -320 142 -476 10 -59 72 -125 192 -204 88 -57 91 -61
82 -86 -68 -178 -192 -481 -197 -481 -4 0 -55 44 -115 99 -90 83 -114 99 -148
104 -65 9 -105 56 -138 162 -13 43 -16 160 -18 824 -3 688 -2 776 12 797 21
33 41 30 54 -7z"/>
<path d="M1936 3574 c-19 -19 -20 -35 -3 -58 11 -14 48 -21 216 -36 141 -14
209 -16 222 -9 28 14 25 67 -3 79 -20 8 -336 40 -397 40 -11 0 -27 -7 -35 -16z"/>
<path d="M3815 3574 c-82 -8 -160 -16 -172 -19 -37 -8 -43 -75 -8 -89 25 -9
413 30 430 44 18 15 20 51 3 68 -14 14 -57 14 -253 -4z"/>
</g>
</svg>
